<svg xmlns="http://www.w3.org/2000/svg" viewBox="0 0 900 1200" role="img" aria-label="Demand response and smart loads">
  <defs>
    <style>
      .bg{fill:#fbfbfb}.paper{fill:#fff;stroke:#000;stroke-opacity:.08;stroke-width:2}.grid{stroke:#000;stroke-opacity:.055;stroke-width:1}.kicker{font-family:Bahnschrift,Segoe UI,sans-serif;font-size:22px;font-weight:700;letter-spacing:2px;fill:#000;fill-opacity:.42}.title{font-family:Bahnschrift,Segoe UI,sans-serif;font-size:52px;font-weight:700;fill:#050505}.label{font-family:Bahnschrift,Segoe UI,sans-serif;font-size:24px;font-weight:600;fill:#000;fill-opacity:.45}.line{fill:none;stroke:#050505;stroke-width:12;stroke-linecap:round}.muted{stroke-opacity:.22}.thin{fill:none;stroke:#050505;stroke-opacity:.18;stroke-width:4;stroke-linecap:round;stroke-linejoin:round}.dashed{stroke-dasharray:12 18}.node,.bar,.box,.dot{fill:#050505;fill-opacity:.08;stroke:#050505;stroke-opacity:.18;stroke-width:3}.dark{fill-opacity:.78;stroke-opacity:.08}.venn{fill:#050505;fill-opacity:.06;stroke:#050505;stroke-opacity:.18;stroke-width:4}
    </style>
  </defs>
  <rect class="bg" width="900" height="1200"/>
  <rect class="paper" x="58" y="58" width="784" height="1084" rx="34"/>
  <path class="grid" d="M112 268 H788"/>
  <path class="grid" d="M112 352 H788"/>
  <path class="grid" d="M112 436 H788"/>
  <path class="grid" d="M112 520 H788"/>
  <path class="grid" d="M112 604 H788"/>
  <path class="grid" d="M112 688 H788"/>
  <path class="grid" d="M112 772 H788"/>
  <path class="grid" d="M112 856 H788"/>
  <text x="112" y="158" class="kicker">DEMAND SIDE MANAGEMENT</text>
  <text x="112" y="254" class="title">Demand response and smart loads</text>
  <g><rect x="148" y="790" width="48" height="170" rx="24" class="bar"/>
<rect x="232" y="698" width="48" height="222" rx="24" class="bar"/>
<rect x="316" y="606" width="48" height="274" rx="24" class="bar"/>
<rect x="400" y="790" width="48" height="326" rx="24" class="bar"/>
<rect x="484" y="698" width="48" height="170" rx="24" class="bar dark"/>
<rect x="568" y="606" width="48" height="222" rx="24" class="bar"/>
<rect x="652" y="790" width="48" height="274" rx="24" class="bar"/>
<path d="M132 706 C244 654 356 688 468 620 C584 550 654 548 768 502" class="line"/></g>
  <text x="176" y="1022" text-anchor="middle" class="label">tariffs</text>
<text x="432" y="1022" text-anchor="middle" class="label">control</text>
<text x="688" y="1022" text-anchor="middle" class="label">loads</text>
</svg>
