<svg xmlns="http://www.w3.org/2000/svg" viewBox="0 0 900 1200" role="img" aria-label="Efficient seasonal-trend decomposition">
  <defs>
    <style>
      .bg{fill:#fbfbfb}.paper{fill:#fff;stroke:#000;stroke-opacity:.08;stroke-width:2}.grid{stroke:#000;stroke-opacity:.055;stroke-width:1}.kicker{font-family:Bahnschrift,Segoe UI,sans-serif;font-size:22px;font-weight:700;letter-spacing:2px;fill:#000;fill-opacity:.42}.title{font-family:Bahnschrift,Segoe UI,sans-serif;font-size:52px;font-weight:700;fill:#050505}.label{font-family:Bahnschrift,Segoe UI,sans-serif;font-size:24px;font-weight:600;fill:#000;fill-opacity:.45}.line{fill:none;stroke:#050505;stroke-width:12;stroke-linecap:round}.muted{stroke-opacity:.22}.thin{fill:none;stroke:#050505;stroke-opacity:.18;stroke-width:4;stroke-linecap:round;stroke-linejoin:round}.dashed{stroke-dasharray:12 18}.node,.bar,.box,.dot{fill:#050505;fill-opacity:.08;stroke:#050505;stroke-opacity:.18;stroke-width:3}.dark{fill-opacity:.78;stroke-opacity:.08}.venn{fill:#050505;fill-opacity:.06;stroke:#050505;stroke-opacity:.18;stroke-width:4}
    </style>
  </defs>
  <rect class="bg" width="900" height="1200"/>
  <rect class="paper" x="58" y="58" width="784" height="1084" rx="34"/>
  <path class="grid" d="M112 268 H788"/>
  <path class="grid" d="M112 352 H788"/>
  <path class="grid" d="M112 436 H788"/>
  <path class="grid" d="M112 520 H788"/>
  <path class="grid" d="M112 604 H788"/>
  <path class="grid" d="M112 688 H788"/>
  <path class="grid" d="M112 772 H788"/>
  <path class="grid" d="M112 856 H788"/>
  <text x="112" y="158" class="kicker">FAST ROBUSTSTL</text>
  <text x="112" y="238" class="title">Efficient seasonal-trend decomp</text><text x="112" y="300" class="title">osition</text>
  <g><path d="M132 588 C222 452 306 720 396 584 C492 440 548 724 640 584 C702 492 736 528 768 476" class="line"/>
<path d="M132 694 C238 636 304 660 396 618 C520 562 618 664 768 596" class="line muted"/>
<path d="M132 792 C258 820 376 734 504 778 C610 814 690 796 768 744" class="thin"/></g>
  <text x="176" y="1022" text-anchor="middle" class="label">trend</text>
<text x="432" y="1022" text-anchor="middle" class="label">seasonality</text>
<text x="688" y="1022" text-anchor="middle" class="label">remainder</text>
</svg>
